P3
# 8-bit ppm - RGB
2 2
255
 96 102 107 119 115 109
 63  66  57 104  96  88
